<svg width="60" height="19" viewBox="0 0 60 19" fill="none" xmlns="http://www.w3.org/2000/svg">
<path d="M59.1446 9.01172L59.0508 9.83204C58.8946 10.9258 58.6016 11.9805 58.1719 12.9961C57.7422 14.0117 57.1797 14.918 56.4844 15.7148C55.7891 16.5039 54.961 17.1289 54 17.5898C53.0469 18.043 51.9649 18.2578 50.7539 18.2344C49.5977 18.2109 48.6172 17.9609 47.8125 17.4844C47.0156 17 46.3828 16.3594 45.9141 15.5625C45.4531 14.7656 45.1446 13.8789 44.9883 12.9023C44.8321 11.918 44.8164 10.9102 44.9414 9.87891L45.0352 9.07032C45.1914 7.97657 45.4844 6.92579 45.9141 5.91797C46.3516 4.91016 46.918 4.01172 47.6133 3.22266C48.3164 2.42579 49.1446 1.80079 50.0977 1.34766C51.0586 0.894536 52.1367 0.679692 53.3321 0.70313C54.4883 0.718755 55.4649 0.968755 56.2617 1.45313C57.0664 1.92969 57.6992 2.56641 58.1602 3.36329C58.6289 4.15235 58.9414 5.03907 59.0977 6.02344C59.2539 7 59.2696 7.9961 59.1446 9.01172ZM55.5703 9.87891L55.6875 9.03516C55.75 8.50391 55.7813 7.92969 55.7813 7.3125C55.7891 6.6875 55.7188 6.08985 55.5703 5.51954C55.4219 4.94141 55.1563 4.46875 54.7735 4.10157C54.3985 3.72657 53.8555 3.52344 53.1446 3.49219C52.3789 3.46875 51.7227 3.6211 51.1758 3.94922C50.6367 4.27735 50.1836 4.72266 49.8164 5.28516C49.4571 5.83985 49.1719 6.44922 48.961 7.11329C48.7578 7.76954 48.6094 8.41407 48.5156 9.04688L48.4102 9.89063C48.3399 10.4141 48.3008 10.9922 48.293 11.625C48.293 12.25 48.3672 12.8516 48.5156 13.4297C48.6641 14 48.9297 14.4727 49.3125 14.8477C49.6953 15.2227 50.2422 15.4258 50.9531 15.457C51.711 15.4805 52.3594 15.3242 52.8985 14.9883C53.4453 14.6523 53.9024 14.207 54.2696 13.6523C54.6367 13.0898 54.9258 12.4805 55.1367 11.8242C55.3477 11.1602 55.4922 10.5117 55.5703 9.87891Z" fill="black"/>
<path d="M42.8203 9.08203L41.7539 15.8555C41.2461 16.4727 40.6133 16.957 39.8555 17.3086C39.1055 17.6523 38.3125 17.8945 37.4766 18.0352C36.6406 18.1758 35.8438 18.2383 35.086 18.2227C33.9219 18.207 32.9297 17.9727 32.1094 17.5195C31.2969 17.0586 30.6485 16.4414 30.1641 15.668C29.6875 14.8945 29.3672 14.0234 29.2031 13.0547C29.0391 12.0781 29.0235 11.0625 29.1563 10.0078L29.3086 8.94141C29.457 7.84766 29.7422 6.80469 30.1641 5.8125C30.586 4.8125 31.1367 3.92578 31.8164 3.15235C32.4961 2.3711 33.3086 1.76172 34.2539 1.32422C35.1992 0.878909 36.2734 0.667972 37.4766 0.691409C38.6797 0.714847 39.7031 0.949222 40.5469 1.39453C41.3906 1.83985 42.0469 2.48047 42.5156 3.31641C42.9922 4.14453 43.2695 5.15235 43.3477 6.33985L40.043 6.32813C40.0039 5.76563 39.8906 5.26953 39.7031 4.83985C39.5156 4.41016 39.2344 4.07422 38.8594 3.83203C38.4844 3.58985 37.9922 3.45703 37.3828 3.4336C36.6328 3.40235 35.9883 3.55078 35.4492 3.87891C34.9102 4.20703 34.457 4.64844 34.0899 5.20313C33.7305 5.75 33.4453 6.35157 33.2344 7.00782C33.0235 7.65625 32.875 8.29297 32.7891 8.91797L32.6367 10.0195C32.5664 10.5898 32.5313 11.1914 32.5313 11.8242C32.5391 12.4492 32.6289 13.0391 32.8008 13.5938C32.9805 14.1406 33.2774 14.5898 33.6914 14.9414C34.1055 15.2852 34.6836 15.4648 35.4258 15.4805C35.7852 15.4883 36.1367 15.4648 36.4805 15.4102C36.8242 15.3555 37.1563 15.2656 37.4766 15.1406C37.7969 15.0078 38.0977 14.8359 38.3789 14.625L38.9649 11.5898H35.8477L36.2813 9.08203H42.8203Z" fill="black"/>
<path d="M27.2227 9.01172L27.1289 9.83204C26.9727 10.9258 26.6797 11.9805 26.25 12.9961C25.8203 14.0117 25.2578 14.918 24.5625 15.7148C23.8672 16.5039 23.0391 17.1289 22.0781 17.5898C21.125 18.043 20.043 18.2578 18.8321 18.2344C17.6758 18.2109 16.6953 17.9609 15.8906 17.4844C15.0938 17 14.461 16.3594 13.9922 15.5625C13.5313 14.7656 13.2227 13.8789 13.0664 12.9023C12.9102 11.918 12.8946 10.9102 13.0196 9.87891L13.1133 9.07032C13.2696 7.97657 13.5625 6.92579 13.9922 5.91797C14.4297 4.91016 14.9961 4.01172 15.6914 3.22266C16.3946 2.42579 17.2227 1.80079 18.1758 1.34766C19.1367 0.894536 20.2149 0.679692 21.4102 0.70313C22.5664 0.718755 23.543 0.968755 24.3399 1.45313C25.1446 1.92969 25.7774 2.56641 26.2383 3.36329C26.7071 4.15235 27.0196 5.03907 27.1758 6.02344C27.3321 7 27.3477 7.9961 27.2227 9.01172ZM23.6485 9.87891L23.7656 9.03516C23.8281 8.50391 23.8594 7.92969 23.8594 7.3125C23.8672 6.6875 23.7969 6.08985 23.6485 5.51954C23.5 4.94141 23.2344 4.46875 22.8516 4.10157C22.4766 3.72657 21.9336 3.52344 21.2227 3.49219C20.4571 3.46875 19.8008 3.6211 19.2539 3.94922C18.7149 4.27735 18.2617 4.72266 17.8946 5.28516C17.5352 5.83985 17.25 6.44922 17.0391 7.11329C16.836 7.76954 16.6875 8.41407 16.5938 9.04688L16.4883 9.89063C16.418 10.4141 16.3789 10.9922 16.3711 11.625C16.3711 12.25 16.4453 12.8516 16.5938 13.4297C16.7422 14 17.0078 14.4727 17.3906 14.8477C17.7735 15.2227 18.3203 15.4258 19.0313 15.457C19.7891 15.4805 20.4375 15.3242 20.9766 14.9883C21.5235 14.6523 21.9805 14.207 22.3477 13.6523C22.7149 13.0898 23.0039 12.4805 23.2149 11.8242C23.4258 11.1602 23.5703 10.5117 23.6485 9.87891Z" fill="black"/>
<path d="M11.3906 15.2578L10.9102 18H2.55469L3.03516 15.2578H11.3906ZM6.64453 0.9375L3.67969 18H0.246094L3.19922 0.9375H6.64453Z" fill="black"/>
</svg>
